#!OML:ASF H:\Terrain\Patient Classification 1\Walking\steve\steve.ASF
:FULLY-SPECIFIED
:DEGREES
46
root 7.6253 14.6493 -27.2348 9.32899 8.24451 3.68625
lowerback 2.37852 -3.28137 -0.529998
upperback -3.66268 -4.26272 3.45016
thorax -4.82029 -2.03156 4.14637
lowerneck -11.1618 0.704967 0.456011
upperneck 7.56889 0.971333 -0.950931
head 4.54832 0.440455 -0.333608
rclavicle -4.00551e-014 3.81667e-014
rhumerus -60.4013 -10.5876 -68.2157
rradius 25.5041
rwrist 11.9404
rhand -14.7637 -33.6358
rfingers 7.12502
rthumb 11.3927 -63.3063
lclavicle -4.00551e-014 3.81667e-014
lhumerus -18.9619 -18.9134 95.8176
lradius 44.4861
lwrist 10.4371
lhand -25.3658 -21.8158
lfingers 7.12502
lthumb 1.15823 8.1608
rfemur -53.3916 0.819424 17.6279
rtibia 51.2118
rfoot -7.98724 4.50128
rtoes 3.29423
lfemur 25.1918 -6.51135 -25.3114
ltibia 11.8868
lfoot 20.3961 0.83047
ltoes -9.95146
47
root 7.61258 14.6845 -27.0275 9.80304 8.16466 3.53536
lowerback 2.26295 -3.1894 -0.591819
upperback -3.88767 -4.13015 3.65895
thorax -4.98121 -1.95428 4.3951
lowerneck -11.1231 0.675996 0.230323
upperneck 7.41355 0.952387 -0.814591
head 4.48086 0.432047 -0.247909
rclavicle 3.34952e-014 -5.24792e-014
rhumerus -60.217 -10.3948 -68.1543
rradius 25.8729
rwrist 11.4134
rhand -14.3891 -35.2031
rfingers 7.12502
rthumb 11.754 -64.8533
lclavicle 3.34952e-014 -5.24792e-014
lhumerus -19.2747 -17.775 96.2203
lradius 42.298
lwrist 10.4738
lhand -25.0085 -21.5577
lfingers 7.12502
lthumb 1.50341 8.41671
rfemur -53.2855 1.0946 17.9579
rtibia 51.6134
rfoot -8.34613 4.58713
rtoes 4.0457
lfemur 22.5621 -6.5007 -24.9783
ltibia 16.484
lfoot 20.8016 2.30436
ltoes -5.60795
48
root 7.60241 14.7274 -26.8283 10.0803 8.26728 3.43667
lowerback 2.23771 -3.16409 -0.58259
upperback -3.96267 -4.0878 3.80572
thorax -5.03947 -1.92875 4.54332
lowerneck -11.1563 0.626306 -0.22662
upperneck 7.32146 0.912797 -0.38594
head 4.44824 0.42197 -0.0228646
rclavicle 1.64991e-014 1.59028e-014
rhumerus -59.7666 -10.4567 -68.0282
rradius 26.0967
rwrist 11.0788
rhand -15.2711 -36.0125
rfingers 7.12502
rthumb 10.9032 -65.7094
lclavicle 1.64991e-014 1.59028e-014
lhumerus -19.1989 -16.6487 96.4441
lradius 39.6747
lwrist 10.3125
lhand -25.1286 -21.9971
lfingers 7.12502
lthumb 1.38732 7.9781
rfemur -52.8858 1.20851 18.2281
rtibia 51.9764
rfoot -9.01758 4.55824
rtoes 4.13907
lfemur 20.3817 -6.42825 -24.6277
ltibia 20.3783
lfoot 21.7795 4.41304
ltoes -0.244601
49
root 7.59801 14.7683 -26.6327 9.999 8.4799 3.60632
lowerback 2.3911 -3.22648 -0.671737
upperback -3.84189 -4.1799 3.73687
thorax -4.99139 -1.9746 4.53084
lowerneck -10.8264 0.629559 -0.378067
upperneck 6.85467 0.898989 0.00333442
head 4.209 0.432918 0.132294
rclavicle -1.75924e-014 -3.18055e-015
rhumerus -59.0809 -11.0029 -67.7996
rradius 25.9608
rwrist 11.477
rhand -16.3228 -35.731
rfingers 7.12502
rthumb 9.88871 -65.4787
lclavicle -1.75924e-014 -3.18055e-015
lhumerus -19.0028 -15.8344 96.3426
lradius 36.9889
lwrist 10.0048
lhand -25.1111 -21.6734
lfingers 7.12502
lthumb 1.40422 8.30169
rfemur -52.0897 1.049 18.2382
rtibia 52.334
rfoot -9.85365 4.73368
rtoes 3.7129
lfemur 18.7908 -6.44696 -24.6679
ltibia 23.7911
lfoot 22.615 6.26458
ltoes 0.611663
50
root 7.58902 14.8069 -26.4399 9.84651 8.3968 3.61615
lowerback 2.68896 -3.19537 -0.751327
upperback -3.81092 -4.14136 3.70485
thorax -5.12868 -1.95025 4.55955
lowerneck -10.5313 0.63589 -0.310668
upperneck 6.63389 0.886598 0.104422
head 4.06994 0.434445 0.151097
rclavicle 2.50469e-014 6.36111e-015
rhumerus -58.5594 -11.4016 -67.6593
rradius 25.7825
rwrist 12.1265
rhand -16.2332 -35.0521
rfingers 7.12502
rthumb 9.97516 -64.7958
lclavicle 2.50469e-014 6.36111e-015
lhumerus -19.103 -14.729 96.2487
lradius 34.2631
lwrist 9.07288
lhand -25.2317 -21.2744
lfingers 7.12502
lthumb 1.28776 8.70148
rfemur -51.2452 1.20255 18.4172
rtibia 52.6278
rfoot -10.6555 5.00519
rtoes 3.40165
lfemur 17.3762 -6.1322 -24.5852
ltibia 26.862
lfoot 23.2947 8.06477
ltoes -0.321012
51
root 7.57734 14.8445 -26.2473 9.78049 8.0887 3.46936
lowerback 2.84785 -3.08233 -0.772758
upperback -3.79037 -3.98784 3.74968
thorax -5.20591 -1.87056 4.6193
lowerneck -10.5367 0.563326 -0.354074
upperneck 6.71031 0.791927 0.147187
head 4.09832 0.388528 0.167046
rclavicle 3.99557e-014 6.36111e-015
rhumerus -57.9309 -12.3703 -66.9235
rradius 25.3005
rwrist 13.883
rhand -14.9783 -35.4377
rfingers 7.12502
rthumb 11.1856 -65.1195
lclavicle 3.99557e-014 6.36111e-015
lhumerus -19.199 -12.9413 96.102
lradius 31.638
lwrist 7.4356
lhand -25.3866 -21.1004
lfingers 7.12502
lthumb 1.13817 8.87632
rfemur -50.4959 1.6592 18.7334
rtibia 52.8583
rfoot -11.5326 5.09252
rtoes 2.38804
lfemur 15.9144 -5.4107 -24.255
ltibia 29.6412
lfoot 23.7591 10.9259
ltoes 2.79155
52
root 7.57123 14.8811 -26.0517 9.77979 7.75807 3.44595
lowerback 2.78384 -2.89252 -0.819498
upperback -3.76126 -3.73757 3.74484
thorax -5.15678 -1.7456 4.61885
lowerneck -10.3281 0.434952 -0.611499
upperneck 6.65303 0.638224 0.341152
head 4.03504 0.315356 0.266562
rclavicle 1.58034e-014 -1.11319e-014
rhumerus -57.5045 -13.7249 -65.7908
rradius 25.1657
rwrist 15.3579
rhand -14.1564 -36.959
rfingers 7.12502
rthumb 11.9783 -66.5962
lclavicle 1.58034e-014 -1.11319e-014
lhumerus -19.3344 -11.4504 96.0422
lradius 29.3298
lwrist 6.00082
lhand -25.3281 -20.3015
lfingers 7.12502
lthumb 1.19464 9.67494
rfemur -49.7856 1.96692 18.9198
rtibia 52.9958
rfoot -12.211 5.31905
rtoes 1.91561
lfemur 14.5006 -4.59459 -24.0697
ltibia 32.1575
lfoot 23.7593 13.6417
ltoes 4.81195
53
root 7.56858 14.9285 -25.8568 9.81338 7.51678 3.29879
lowerback 2.61301 -2.66926 -0.647516
upperback -3.7589 -3.43203 3.71507
thorax -5.09351 -1.60195 4.46101
lowerneck -10.0371 0.33184 -0.734851
upperneck 6.64839 0.509363 0.409843
head 3.97544 0.251631 0.301743
rclavicle 1.48095e-014 7.95139e-015
rhumerus -57.1714 -14.1184 -65.8059
rradius 25.6863
rwrist 14.9103
rhand -16.1143 -36.6155
rfingers 7.12502
rthumb 10.0899 -66.3536
lclavicle 1.48095e-014 7.95139e-015
lhumerus -19.55 -10.4017 96.019
lradius 27.0591
lwrist 4.48193
lhand -25.8274 -19.5751
lfingers 7.12502
lthumb 0.712495 10.4035
rfemur -49.0045 2.11419 19.2621
rtibia 52.9763
rfoot -12.8294 5.67341
rtoes 1.66632
lfemur 13.0646 -3.89537 -23.7897
ltibia 34.526
lfoot 23.1876 15.1376
ltoes 5.68747
54
root 7.57077 14.985 -25.6654 9.84575 7.40346 3.08537
lowerback 2.27358 -2.52072 -0.19938
upperback -3.55743 -3.22911 3.50067
thorax -4.74013 -1.52968 3.94368
lowerneck -10.2071 0.332984 -0.332121
upperneck 6.75287 0.458204 0.377347
head 4.04792 0.235811 0.216503
rclavicle 2.39536e-014 -3.49861e-014
rhumerus -56.3004 -14.6233 -66.5503
rradius 25.8757
rwrist 14.7004
rhand -18.0276 -35.0547
rfingers 7.12502
rthumb 8.24366 -64.8738
lclavicle 2.39536e-014 -3.49861e-014
lhumerus -19.3468 -8.74971 95.2922
lradius 24.9128
lwrist 2.44304
lhand -25.563 -18.6993
lfingers 7.12502
lthumb 0.967787 11.2782
rfemur -48.1503 2.15051 19.661
rtibia 52.8256
rfoot -13.534 5.99169
rtoes 1.10152
lfemur 11.5322 -3.32151 -23.4506
ltibia 36.8283
lfoot 22.5304 15.2922
ltoes 5.45538
55
root 7.57213 15.041 -25.4767 9.92812 7.24703 3.0577
lowerback 2.39858 -2.41507 -0.13638
upperback -3.71059 -3.08257 3.41019
thorax -4.98959 -1.45576 3.81892
lowerneck -10.1815 0.372992 -0.0813163
upperneck 7.0737 0.487526 0.251311
head 4.1586 0.250977 0.132127
rclavicle -1.32192e-014 9.54166e-015
rhumerus -55.6714 -15.3596 -66.3414
rradius 25.662
rwrist 15.2527
rhand -17.4653 -35.4197
rfingers 7.12502
rthumb 8.78635 -65.2168
lclavicle -1.32192e-014 9.54166e-015
lhumerus -19.6488 -5.87635 94.5049
lradius 22.9615
lwrist 0.0102466
lhand -24.1897 -18.245
lfingers 7.12502
lthumb 2.29411 11.7224
rfemur -47.3161 2.09065 19.8803
rtibia 52.5618
rfoot -14.0612 6.45869
rtoes 1.39162
lfemur 9.91896 -2.79873 -23.3793
ltibia 39.0607
lfoot 21.9538 14.4368
ltoes 2.36215
56
root 7.56548 15.0872 -25.2907 9.97062 6.90043 3.08456
lowerback 2.25287 -2.24549 -0.229239
upperback -3.80063 -2.86225 3.36451
thorax -5.0128 -1.34256 3.80598
lowerneck -9.70051 0.30354 -0.22166
upperneck 7.21098 0.418004 0.20285
head 4.11082 0.20998 0.135232
rclavicle 4.03533e-014 -5.08889e-014
rhumerus -55.0205 -15.9475 -66.1368
rradius 25.6676
rwrist 15.3115
rhand -16.6467 -36.4683
rfingers 7.12502
rthumb 9.57622 -66.2307
lclavicle 4.03533e-014 -5.08889e-014
lhumerus -20.1089 -2.85517 93.7152
lradius 21.1629
lwrist -2.82121
lhand -23.3593 -18.4107
lfingers 7.12502
lthumb 3.09608 11.5466
rfemur -46.4274 2.24019 20.0277
rtibia 52.2618
rfoot -14.5036 6.93598
rtoes 2.24327
lfemur 8.38798 -2.22133 -23.41
ltibia 41.1314
lfoot 20.5328 13.3738
ltoes 1.08719
57
root 7.55961 15.1285 -25.1076 9.91313 6.61331 2.99917
lowerback 2.06638 -2.00597 -0.15408
upperback -3.76114 -2.54335 3.32125
thorax -4.89079 -1.18955 3.68904
lowerneck -9.50142 0.15076 -0.682338
upperneck 7.43769 0.24352 0.533086
head 4.15217 0.126396 0.317043
rclavicle 8.44835e-015 9.54166e-015
rhumerus -54.2476 -15.4946 -67.1491
rradius 26.2848
rwrist 13.6541
rhand -17.5492 -36.4338
rfingers 7.12502
rthumb 8.70543 -66.2343
lclavicle 8.44835e-015 9.54166e-015
lhumerus -20.5399 -0.0691116 92.9154
lradius 19.5773
lwrist -6.01722
lhand -22.9843 -18.8489
lfingers 7.12502
lthumb 3.45824 11.1028
rfemur -45.41 2.40771 20.2771
rtibia 51.9538
rfoot -15.0105 7.30813
rtoes 2.97913
lfemur 7.02728 -1.55971 -23.223
ltibia 43.0328
lfoot 18.2992 11.7267
ltoes 2.08935
58
root 7.5592 15.1768 -24.927 9.78938 6.48554 3.10405
lowerback 2.0972 -1.82952 -0.287097
upperback -3.70499 -2.31699 3.25224
thorax -4.86131 -1.07401 3.67802
lowerneck -9.54102 0.0192784 -1.05796
upperneck 7.70652 0.0894039 0.827359
head 4.25906 0.0534493 0.474382
rclavicle 3.27995e-015 2.22639e-014
rhumerus -53.2825 -14.414 -68.7522
rradius 26.8285
rwrist 10.3861
rhand -20.0647 -35.7302
rfingers 7.12502
rthumb 6.27736 -65.6172
lclavicle 3.27995e-015 2.22639e-014
lhumerus -21.1813 2.81161 92.0199
lradius 18.2884
lwrist -9.34056
lhand -22.9066 -19.8181
lfingers 7.12502
lthumb 3.53328 10.1323
rfemur -44.2224 2.32652 20.3085
rtibia 51.5805
rfoot -15.5158 7.70931
rtoes 3.83154
lfemur 5.75982 -0.985206 -23.2158
ltibia 44.7782
lfoot 16.2186 9.1341
ltoes 0.437076
